<?xml version="1.0" standalone="no"?><!DOCTYPE svg PUBLIC "-//W3C//DTD SVG 1.1//EN" "http://www.w3.org/Graphics/SVG/1.1/DTD/svg11.dtd"><svg t="1553954831036" class="icon" style="" viewBox="0 0 1024 1024" version="1.1" xmlns="http://www.w3.org/2000/svg" p-id="21315" xmlns:xlink="http://www.w3.org/1999/xlink" width="64" height="64"><defs><style type="text/css"></style></defs><path d="M937.501462 62.388932 86.500585 62.388932c-13.297864 0-24.111141 10.816347-24.111141 24.110117l0 851.002924c0 13.292748 10.812253 24.110117 24.111141 24.110117l851.001901 0c13.296841 0 24.110117-10.815323 24.110117-24.110117L961.612603 86.49905C961.611579 73.205279 950.798303 62.388932 937.501462 62.388932zM945.553858 937.50095c0 4.513804-3.535523 8.05035-8.05035 8.05035L86.500585 945.5513c-4.51585 0-8.052396-3.536546-8.052396-8.05035L78.448188 86.49905c0-4.516874 3.536546-8.052396 8.052396-8.052396l851.001901 0c4.514827 0 8.05035 3.535523 8.05035 8.052396l0 851.002924L945.553858 937.501974z" p-id="21316" fill="#8a8a8a"></path><path d="M721.74963 500.960573 523.038916 500.960573 523.038916 302.247812c0-6.096858-4.942569-11.039427-11.037381-11.039427-6.096858 0-11.039427 4.942569-11.039427 11.039427l0 198.712761L302.249347 500.960573c-6.096858 0-11.039427 4.942569-11.039427 11.039427s4.942569 11.039427 11.039427 11.039427l198.712761 0 0 198.712761c0 6.095835 4.942569 11.038404 11.039427 11.038404 6.094812 0 11.037381-4.942569 11.037381-11.038404L523.038916 523.039427l198.713784 0c6.097882 0 11.038404-4.942569 11.038404-11.039427S727.847511 500.960573 721.74963 500.960573z" p-id="21317" fill="#8a8a8a"></path></svg>